<svg width="54" height="54" viewBox="0 0 54 54" fill="none" xmlns="http://www.w3.org/2000/svg">
<path d="M27 51.1875C13.6575 51.1875 2.8125 40.3425 2.8125 27C2.8125 13.6575 13.6575 2.8125 27 2.8125C40.3425 2.8125 51.1875 13.6575 51.1875 27C51.1875 40.3425 40.3425 51.1875 27 51.1875ZM27 6.1875C15.525 6.1875 6.1875 15.525 6.1875 27C6.1875 38.475 15.525 47.8125 27 47.8125C38.475 47.8125 47.8125 38.475 47.8125 27C47.8125 15.525 38.475 6.1875 27 6.1875Z" fill="#02D1FF"/>
<path d="M35.345 35.8425C35.0525 35.8425 34.76 35.775 34.49 35.595L27.515 31.4325C25.7825 30.3975 24.5 28.125 24.5 26.1225V16.8975C24.5 15.975 25.265 15.21 26.1875 15.21C27.11 15.21 27.875 15.975 27.875 16.8975V26.1225C27.875 26.9325 28.55 28.125 29.2475 28.53L36.2225 32.6925C37.0325 33.165 37.28 34.2 36.8075 35.01C36.47 35.55 35.9075 35.8425 35.345 35.8425Z" fill="#02D1FF"/>
</svg>
