<svg width="54" height="54" viewBox="0 0 54 54" fill="none" xmlns="http://www.w3.org/2000/svg">
<path d="M18 51.1876C9.63 51.1876 2.8125 44.3701 2.8125 36.0001C2.8125 29.1601 7.4025 23.1301 13.995 21.3526C14.8275 21.1276 15.6825 21.5551 15.9975 22.3651C17.37 25.8076 20.295 28.4401 23.8725 29.4076C25.8525 29.9476 28.1475 29.9476 30.0825 29.4076C30.915 29.1826 31.7925 29.6101 32.1075 30.4201C32.805 32.1976 33.165 34.0876 33.165 36.0226C33.165 40.3426 31.32 44.4601 28.1025 47.3176C25.3575 49.7926 21.7575 51.1876 18 51.1876ZM13.545 25.0426C9.1575 26.8426 6.1875 31.1626 6.1875 36.0001C6.1875 42.5026 11.4975 47.8126 18 47.8126C20.925 47.8126 23.715 46.7326 25.875 44.7751C28.395 42.5476 29.8125 39.3526 29.8125 36.0001C29.8125 34.9651 29.6775 33.9751 29.43 33.0076C27.315 33.3451 25.02 33.2326 22.995 32.6701C18.9225 31.5451 15.5025 28.7551 13.545 25.0426Z" fill="#02D1FF"/>
<path d="M27 33.1875C25.605 33.1875 24.255 33.0075 22.995 32.6475C18.4275 31.3875 14.625 28.0125 12.87 23.58C12.1725 21.825 11.8125 19.935 11.8125 18C11.8125 9.63 18.63 2.8125 27 2.8125C35.37 2.8125 42.1875 9.63 42.1875 18C42.1875 19.935 41.8275 21.825 41.13 23.6025C39.375 28.0125 35.595 31.41 31.005 32.67C29.745 33.0075 28.395 33.1875 27 33.1875ZM27 6.1875C20.4975 6.1875 15.1875 11.4975 15.1875 18C15.1875 19.5075 15.4575 20.97 16.02 22.3425C17.3925 25.785 20.3175 28.4175 23.895 29.385C25.875 29.925 28.17 29.925 30.105 29.385C33.6825 28.4175 36.63 25.7625 37.98 22.3425C38.52 20.97 38.8125 19.5075 38.8125 18C38.8125 11.4975 33.5025 6.1875 27 6.1875Z" fill="#02D1FF"/>
<path d="M36 51.1874C32.2425 51.1874 28.6425 49.7924 25.875 47.2949C25.515 46.9799 25.3125 46.5074 25.3125 46.0349C25.3125 45.5624 25.515 45.0899 25.875 44.7749C28.3725 42.5699 29.8125 39.3749 29.8125 35.9999C29.8125 34.4924 29.5425 33.0299 28.98 31.6574C28.8 31.2074 28.8225 30.7124 29.0475 30.2849C29.2725 29.8574 29.655 29.5424 30.105 29.4074C33.6825 28.4399 36.6075 25.8074 37.98 22.3649C38.295 21.5549 39.1725 21.1499 39.9825 21.3524C46.575 23.1524 51.165 29.1599 51.165 35.9999C51.1875 44.3699 44.37 51.1874 36 51.1874ZM29.52 45.8774C31.4325 47.1374 33.66 47.8124 36 47.8124C42.5025 47.8124 47.8125 42.5024 47.8125 35.9999C47.8125 31.1624 44.8425 26.8424 40.455 25.0424C38.79 28.2149 36 30.7349 32.67 32.0849C33.0075 33.3449 33.1875 34.6724 33.1875 35.9999C33.1875 39.6449 31.8825 43.1549 29.52 45.8774Z" fill="#02D1FF"/>
</svg>
