<svg width="54" height="54" viewBox="0 0 54 54" fill="none" xmlns="http://www.w3.org/2000/svg">
<path d="M44.4825 25.3125H35.3925C30.87 25.3125 28.6875 23.31 28.6875 19.17V8.955C28.6875 4.815 30.8925 2.8125 35.3925 2.8125H44.4825C49.005 2.8125 51.1875 4.815 51.1875 8.955V19.1475C51.1875 23.31 48.9825 25.3125 44.4825 25.3125ZM35.3925 6.1875C32.3775 6.1875 32.0625 7.0425 32.0625 8.955V19.1475C32.0625 21.0825 32.3775 21.915 35.3925 21.915H44.4825C47.4975 21.915 47.8125 21.06 47.8125 19.1475V8.955C47.8125 7.02 47.4975 6.1875 44.4825 6.1875H35.3925Z" fill="#00D1FF"/>
<path d="M44.4825 51.1875H35.3925C30.87 51.1875 28.6875 48.9825 28.6875 44.4825V35.3925C28.6875 30.87 30.8925 28.6875 35.3925 28.6875H44.4825C49.005 28.6875 51.1875 30.8925 51.1875 35.3925V44.4825C51.1875 48.9825 48.9825 51.1875 44.4825 51.1875ZM35.3925 32.0625C32.7375 32.0625 32.0625 32.7375 32.0625 35.3925V44.4825C32.0625 47.1375 32.7375 47.8125 35.3925 47.8125H44.4825C47.1375 47.8125 47.8125 47.1375 47.8125 44.4825V35.3925C47.8125 32.7375 47.1375 32.0625 44.4825 32.0625H35.3925Z" fill="#00D1FF"/>
<path d="M18.6075 25.3125H9.5175C4.995 25.3125 2.8125 23.31 2.8125 19.17V8.955C2.8125 4.815 5.0175 2.8125 9.5175 2.8125H18.6075C23.13 2.8125 25.3125 4.815 25.3125 8.955V19.1475C25.3125 23.31 23.1075 25.3125 18.6075 25.3125ZM9.5175 6.1875C6.5025 6.1875 6.1875 7.0425 6.1875 8.955V19.1475C6.1875 21.0825 6.5025 21.915 9.5175 21.915H18.6075C21.6225 21.915 21.9375 21.06 21.9375 19.1475V8.955C21.9375 7.02 21.6225 6.1875 18.6075 6.1875H9.5175Z" fill="#00D1FF"/>
<path d="M18.6075 51.1875H9.5175C4.995 51.1875 2.8125 48.9825 2.8125 44.4825V35.3925C2.8125 30.87 5.0175 28.6875 9.5175 28.6875H18.6075C23.13 28.6875 25.3125 30.8925 25.3125 35.3925V44.4825C25.3125 48.9825 23.1075 51.1875 18.6075 51.1875ZM9.5175 32.0625C6.8625 32.0625 6.1875 32.7375 6.1875 35.3925V44.4825C6.1875 47.1375 6.8625 47.8125 9.5175 47.8125H18.6075C21.2625 47.8125 21.9375 47.1375 21.9375 44.4825V35.3925C21.9375 32.7375 21.2625 32.0625 18.6075 32.0625H9.5175Z" fill="#00D1FF"/>
</svg>
