<svg width="120" height="32" viewBox="0 0 120 32" fill="none" xmlns="http://www.w3.org/2000/svg">
<path fill-rule="evenodd" clip-rule="evenodd" d="M16.2498 32C25.2243 32 32.4996 24.8366 32.4996 16C32.4996 7.16344 25.2243 0 16.2498 0C7.27529 0 0 7.16344 0 16C0 24.8366 7.27529 32 16.2498 32ZM16.2498 32C23.1303 32 28.708 26.508 28.708 19.7333C28.708 12.9586 23.1303 7.46667 16.2498 7.46667C9.36935 7.46667 3.79162 12.9586 3.79162 19.7333C3.79162 26.508 9.36935 32 16.2498 32Z" fill="url(#paint0_linear_2516_4191)"/>
<path fill-rule="evenodd" clip-rule="evenodd" d="M15.2752 15.8604C15.2213 15.8092 15.1528 15.7746 15.0786 15.761C15.0043 15.7475 14.9276 15.7555 14.8581 15.7841C14.7885 15.8127 14.7293 15.8607 14.6878 15.9219C14.6463 15.9831 14.6245 16.0549 14.625 16.1281L14.6698 22.9479C14.6703 23.021 14.693 23.0923 14.7351 23.1529C14.7772 23.2134 14.8368 23.2606 14.9065 23.2885C14.9762 23.3164 15.0528 23.3237 15.1267 23.3095C15.2006 23.2953 15.2686 23.2603 15.3221 23.2088L17.1731 21.4276C17.2428 21.3605 17.3365 21.322 17.4346 21.32L20.0421 21.2678C20.1175 21.2663 20.1907 21.2433 20.2526 21.2016C20.3145 21.1599 20.3623 21.1015 20.3901 21.0336C20.4178 20.9656 20.4243 20.8913 20.4086 20.8198C20.3929 20.7483 20.3558 20.6829 20.302 20.6318L15.2752 15.8604Z" fill="white"/>
<path d="M55.8995 24.6819H52.6756L51.4016 21.1278H43.6537L42.3797 24.6819H39.1297L45.7336 7.03737H49.3216L55.8995 24.6819ZM47.5276 10.4402L44.6417 18.4055H50.4136L47.5276 10.4402Z" fill="white"/>
<path d="M59.8066 9.68405C59.1046 10.3646 58.0126 10.3646 57.2846 9.68405C56.5826 8.97827 56.5826 7.9196 57.2846 7.23903C57.9866 6.53325 59.1306 6.53325 59.8326 7.23903C60.5346 7.9196 60.5346 8.97827 59.8066 9.68405ZM59.9626 24.6819H57.1546V12.0787H59.9626V24.6819Z" fill="white"/>
<path d="M68.1369 21.2286L71.4648 12.0787H74.4548L69.4628 25.0852C68.2149 28.3368 66.1089 29.8996 63.1189 29.7232V27.1773C64.8869 27.2782 65.8749 26.4463 66.5769 24.7071L66.7069 24.455L61.1949 12.0787H64.2629L68.1369 21.2286Z" fill="white"/>
<path d="M85.4787 13.8683V12.0787H88.2866V24.6819H85.4787V22.867C84.4127 24.3038 82.9047 25.0096 80.9287 25.0096C79.1347 25.0096 77.6267 24.3794 76.3528 23.0939C75.0788 21.8084 74.4548 20.2203 74.4548 18.3803C74.4548 16.515 75.0788 14.9522 76.3528 13.6667C77.6267 12.3811 79.1347 11.751 80.9287 11.751C82.9047 11.751 84.4127 12.4568 85.4787 13.8683ZM78.4327 21.279C79.2127 22.0352 80.2007 22.4133 81.3707 22.4133C82.5407 22.4133 83.5287 22.0352 84.3087 21.279C85.0887 20.4976 85.4787 19.5398 85.4787 18.3803C85.4787 17.2208 85.0887 16.2629 84.3087 15.5067C83.5287 14.7253 82.5407 14.3472 81.3707 14.3472C80.2007 14.3472 79.2127 14.7253 78.4327 15.5067C77.6527 16.2629 77.2627 17.2208 77.2627 18.3803C77.2627 19.5398 77.6527 20.4976 78.4327 21.279Z" fill="white"/>
<path d="M101.335 13.8683V7.03737H104.143V24.6819H101.335V22.867C100.269 24.3038 98.7615 25.0096 96.7855 25.0096C94.9915 25.0096 93.4835 24.3794 92.2095 23.0939C90.9355 21.8084 90.3116 20.2203 90.3116 18.3803C90.3116 16.515 90.9355 14.9522 92.2095 13.6667C93.4835 12.3811 94.9915 11.751 96.7855 11.751C98.7615 11.751 100.269 12.4568 101.335 13.8683ZM94.2895 21.279C95.0695 22.0352 96.0575 22.4133 97.2275 22.4133C98.3975 22.4133 99.3855 22.0352 100.165 21.279C100.945 20.4976 101.335 19.5398 101.335 18.3803C101.335 17.2208 100.945 16.2629 100.165 15.5067C99.3855 14.7253 98.3975 14.3472 97.2275 14.3472C96.0575 14.3472 95.0695 14.7253 94.2895 15.5067C93.5095 16.2629 93.1195 17.2208 93.1195 18.3803C93.1195 19.5398 93.5095 20.4976 94.2895 21.279Z" fill="white"/>
<path d="M117.192 13.8683V12.0787H120V24.6819H117.192V22.867C116.126 24.3038 114.618 25.0096 112.642 25.0096C110.848 25.0096 109.34 24.3794 108.066 23.0939C106.792 21.8084 106.168 20.2203 106.168 18.3803C106.168 16.515 106.792 14.9522 108.066 13.6667C109.34 12.3811 110.848 11.751 112.642 11.751C114.618 11.751 116.126 12.4568 117.192 13.8683ZM110.146 21.279C110.926 22.0352 111.914 22.4133 113.084 22.4133C114.254 22.4133 115.242 22.0352 116.022 21.279C116.802 20.4976 117.192 19.5398 117.192 18.3803C117.192 17.2208 116.802 16.2629 116.022 15.5067C115.242 14.7253 114.254 14.3472 113.084 14.3472C111.914 14.3472 110.926 14.7253 110.146 15.5067C109.366 16.2629 108.976 17.2208 108.976 18.3803C108.976 19.5398 109.366 20.4976 110.146 21.279Z" fill="white"/>
<defs>
<linearGradient id="paint0_linear_2516_4191" x1="60.0001" y1="0" x2="60.0001" y2="32" gradientUnits="userSpaceOnUse">
<stop stop-color="#FF5833"/>
<stop offset="1" stop-color="#FE7734"/>
</linearGradient>
</defs>
</svg>
