<svg width="48" height="48" viewBox="0 0 48 48" fill="none" xmlns="http://www.w3.org/2000/svg">
<path d="M16.18 23.259H6.8C6.96 13.919 8.8 12.379 14.54 8.97896C15.2 8.57896 15.42 7.73897 15.02 7.05897C14.64 6.39897 13.78 6.17897 13.12 6.57897C6.36 10.579 4 13.019 4 24.639V35.419C4 38.839 6.78 41.599 10.18 41.599H16.18C19.7 41.599 22.36 38.939 22.36 35.419V29.419C22.36 25.919 19.7 23.259 16.18 23.259Z" fill="#02D1FF"/>
<path d="M37.8172 23.259H28.4372C28.5972 13.919 30.4372 12.379 36.1772 8.97897C36.8372 8.57897 37.0572 7.73897 36.6572 7.05897C36.2572 6.39897 35.4172 6.17897 34.7372 6.57897C27.9772 10.579 25.6172 13.019 25.6172 24.659V35.439C25.6172 38.859 28.3972 41.619 31.7972 41.619H37.7972C41.3172 41.619 43.9772 38.959 43.9772 35.439V29.439C43.9972 25.919 41.3372 23.259 37.8172 23.259Z" fill="#02D1FF"/>
</svg>
