<svg width="54" height="54" viewBox="0 0 54 54" fill="none" xmlns="http://www.w3.org/2000/svg">
<path d="M19.5075 51.1875H4.5C3.5775 51.1875 2.8125 50.4225 2.8125 49.5V36C2.8125 32.58 5.58 29.8125 9 29.8125H19.5075C20.43 29.8125 21.195 30.5775 21.195 31.5V49.5C21.195 50.4225 20.43 51.1875 19.5075 51.1875ZM6.1875 47.8125H17.82V33.1875H9C7.4475 33.1875 6.1875 34.4475 6.1875 36V47.8125Z" fill="#00D1FF"/>
<path d="M34.4919 51.1875H19.4844C18.5619 51.1875 17.7969 50.4225 17.7969 49.5V27C17.7969 23.58 20.5644 20.8125 23.9844 20.8125H29.9919C33.4119 20.8125 36.1794 23.58 36.1794 27V49.5C36.1794 50.4225 35.4369 51.1875 34.4919 51.1875ZM21.1944 47.8125H32.8269V27C32.8269 25.4475 31.5669 24.1875 30.0144 24.1875H24.0069C22.4544 24.1875 21.1944 25.4475 21.1944 27V47.8125Z" fill="#00D1FF"/>
<path d="M49.4997 51.1875H34.4922C33.5697 51.1875 32.8047 50.4225 32.8047 49.5V38.25C32.8047 37.3275 33.5697 36.5625 34.4922 36.5625H44.9997C48.4197 36.5625 51.1872 39.33 51.1872 42.75V49.5C51.1872 50.4225 50.4222 51.1875 49.4997 51.1875ZM36.1797 47.8125H47.8122V42.75C47.8122 41.1975 46.5522 39.9375 44.9997 39.9375H36.1797V47.8125Z" fill="#00D1FF"/>
<path d="M30.8245 18.7875C30.2845 18.7875 29.6095 18.63 28.8445 18.18L26.9995 17.0775L25.177 18.1575C23.332 19.26 22.117 18.6075 21.667 18.2925C21.217 17.9775 20.2495 16.9875 20.722 14.9175L21.1495 13.05L19.6195 11.52C18.6745 10.575 18.337 9.44999 18.6745 8.41499C19.012 7.37999 19.9345 6.65998 21.2395 6.43498L23.197 6.0975L24.2995 3.89254C25.5145 1.48504 28.462 1.48504 29.6545 3.89254L30.757 6.0975L32.7145 6.43498C34.0195 6.65998 34.9645 7.37999 35.2795 8.41499C35.617 9.44999 35.257 10.575 34.3345 11.52L32.8045 13.05L33.232 14.9175C33.7045 17.01 32.737 17.9775 32.287 18.315C32.0845 18.495 31.567 18.7875 30.8245 18.7875ZM26.9995 13.68C27.5395 13.68 28.0795 13.815 28.5295 14.085L29.7895 14.8275L29.5195 13.6125C29.2945 12.6675 29.632 11.52 30.3295 10.8225L31.477 9.67499L30.0595 9.42752C29.1595 9.27002 28.282 8.61752 27.877 7.80752L26.9995 6.12002L26.1445 7.80752C25.7395 8.61752 24.862 9.27002 23.962 9.42752L22.5445 9.65253L23.692 10.8C24.3895 11.4975 24.7045 12.645 24.502 13.59L24.232 14.805L25.492 14.0625C25.9195 13.7925 26.4595 13.68 26.9995 13.68Z" fill="#00D1FF"/>
</svg>
